G04 #@! TF.GenerationSoftware,KiCad,Pcbnew,5.1.7-a382d34a8~87~ubuntu18.04.1*
G04 #@! TF.CreationDate,2020-11-24T04:47:55+09:00*
G04 #@! TF.ProjectId,dmg-cartridge-breakout,646d672d-6361-4727-9472-696467652d62,rev?*
G04 #@! TF.SameCoordinates,Original*
G04 #@! TF.FileFunction,Copper,L1,Top*
G04 #@! TF.FilePolarity,Positive*
%FSLAX46Y46*%
G04 Gerber Fmt 4.6, Leading zero omitted, Abs format (unit mm)*
G04 Created by KiCad (PCBNEW 5.1.7-a382d34a8~87~ubuntu18.04.1) date 2020-11-24 04:47:55*
%MOMM*%
%LPD*%
G01*
G04 APERTURE LIST*
G04 #@! TA.AperFunction,SMDPad,CuDef*
%ADD10R,1.000000X3.150000*%
G04 #@! TD*
G04 #@! TA.AperFunction,ViaPad*
%ADD11C,0.800000*%
G04 #@! TD*
G04 #@! TA.AperFunction,Conductor*
%ADD12C,1.000000*%
G04 #@! TD*
G04 #@! TA.AperFunction,Conductor*
%ADD13C,0.300000*%
G04 #@! TD*
G04 APERTURE END LIST*
G04 #@! TA.AperFunction,SMDPad,CuDef*
G36*
G01*
X33250000Y-84750500D02*
X33250000Y-90249500D01*
G75*
G02*
X32999500Y-90500000I-250500J0D01*
G01*
X32000500Y-90500000D01*
G75*
G02*
X31750000Y-90249500I0J250500D01*
G01*
X31750000Y-84750500D01*
G75*
G02*
X32000500Y-84500000I250500J0D01*
G01*
X32999500Y-84500000D01*
G75*
G02*
X33250000Y-84750500I0J-250500D01*
G01*
G37*
G04 #@! TD.AperFunction*
G04 #@! TA.AperFunction,SMDPad,CuDef*
G36*
G01*
X34750000Y-84750000D02*
X34750000Y-90250000D01*
G75*
G02*
X34500000Y-90500000I-250000J0D01*
G01*
X34000000Y-90500000D01*
G75*
G02*
X33750000Y-90250000I0J250000D01*
G01*
X33750000Y-84750000D01*
G75*
G02*
X34000000Y-84500000I250000J0D01*
G01*
X34500000Y-84500000D01*
G75*
G02*
X34750000Y-84750000I0J-250000D01*
G01*
G37*
G04 #@! TD.AperFunction*
G04 #@! TA.AperFunction,SMDPad,CuDef*
G36*
G01*
X36250000Y-84750000D02*
X36250000Y-90250000D01*
G75*
G02*
X36000000Y-90500000I-250000J0D01*
G01*
X35500000Y-90500000D01*
G75*
G02*
X35250000Y-90250000I0J250000D01*
G01*
X35250000Y-84750000D01*
G75*
G02*
X35500000Y-84500000I250000J0D01*
G01*
X36000000Y-84500000D01*
G75*
G02*
X36250000Y-84750000I0J-250000D01*
G01*
G37*
G04 #@! TD.AperFunction*
G04 #@! TA.AperFunction,SMDPad,CuDef*
G36*
G01*
X37750000Y-84750000D02*
X37750000Y-90250000D01*
G75*
G02*
X37500000Y-90500000I-250000J0D01*
G01*
X37000000Y-90500000D01*
G75*
G02*
X36750000Y-90250000I0J250000D01*
G01*
X36750000Y-84750000D01*
G75*
G02*
X37000000Y-84500000I250000J0D01*
G01*
X37500000Y-84500000D01*
G75*
G02*
X37750000Y-84750000I0J-250000D01*
G01*
G37*
G04 #@! TD.AperFunction*
G04 #@! TA.AperFunction,SMDPad,CuDef*
G36*
G01*
X39250000Y-84750000D02*
X39250000Y-90250000D01*
G75*
G02*
X39000000Y-90500000I-250000J0D01*
G01*
X38500000Y-90500000D01*
G75*
G02*
X38250000Y-90250000I0J250000D01*
G01*
X38250000Y-84750000D01*
G75*
G02*
X38500000Y-84500000I250000J0D01*
G01*
X39000000Y-84500000D01*
G75*
G02*
X39250000Y-84750000I0J-250000D01*
G01*
G37*
G04 #@! TD.AperFunction*
G04 #@! TA.AperFunction,SMDPad,CuDef*
G36*
G01*
X40750000Y-84750000D02*
X40750000Y-90250000D01*
G75*
G02*
X40500000Y-90500000I-250000J0D01*
G01*
X40000000Y-90500000D01*
G75*
G02*
X39750000Y-90250000I0J250000D01*
G01*
X39750000Y-84750000D01*
G75*
G02*
X40000000Y-84500000I250000J0D01*
G01*
X40500000Y-84500000D01*
G75*
G02*
X40750000Y-84750000I0J-250000D01*
G01*
G37*
G04 #@! TD.AperFunction*
G04 #@! TA.AperFunction,SMDPad,CuDef*
G36*
G01*
X42250000Y-84750000D02*
X42250000Y-90250000D01*
G75*
G02*
X42000000Y-90500000I-250000J0D01*
G01*
X41500000Y-90500000D01*
G75*
G02*
X41250000Y-90250000I0J250000D01*
G01*
X41250000Y-84750000D01*
G75*
G02*
X41500000Y-84500000I250000J0D01*
G01*
X42000000Y-84500000D01*
G75*
G02*
X42250000Y-84750000I0J-250000D01*
G01*
G37*
G04 #@! TD.AperFunction*
G04 #@! TA.AperFunction,SMDPad,CuDef*
G36*
G01*
X43750000Y-84750000D02*
X43750000Y-90250000D01*
G75*
G02*
X43500000Y-90500000I-250000J0D01*
G01*
X43000000Y-90500000D01*
G75*
G02*
X42750000Y-90250000I0J250000D01*
G01*
X42750000Y-84750000D01*
G75*
G02*
X43000000Y-84500000I250000J0D01*
G01*
X43500000Y-84500000D01*
G75*
G02*
X43750000Y-84750000I0J-250000D01*
G01*
G37*
G04 #@! TD.AperFunction*
G04 #@! TA.AperFunction,SMDPad,CuDef*
G36*
G01*
X45250000Y-84750000D02*
X45250000Y-90250000D01*
G75*
G02*
X45000000Y-90500000I-250000J0D01*
G01*
X44500000Y-90500000D01*
G75*
G02*
X44250000Y-90250000I0J250000D01*
G01*
X44250000Y-84750000D01*
G75*
G02*
X44500000Y-84500000I250000J0D01*
G01*
X45000000Y-84500000D01*
G75*
G02*
X45250000Y-84750000I0J-250000D01*
G01*
G37*
G04 #@! TD.AperFunction*
G04 #@! TA.AperFunction,SMDPad,CuDef*
G36*
G01*
X46750000Y-84750000D02*
X46750000Y-90250000D01*
G75*
G02*
X46500000Y-90500000I-250000J0D01*
G01*
X46000000Y-90500000D01*
G75*
G02*
X45750000Y-90250000I0J250000D01*
G01*
X45750000Y-84750000D01*
G75*
G02*
X46000000Y-84500000I250000J0D01*
G01*
X46500000Y-84500000D01*
G75*
G02*
X46750000Y-84750000I0J-250000D01*
G01*
G37*
G04 #@! TD.AperFunction*
G04 #@! TA.AperFunction,SMDPad,CuDef*
G36*
G01*
X48250000Y-84750000D02*
X48250000Y-90250000D01*
G75*
G02*
X48000000Y-90500000I-250000J0D01*
G01*
X47500000Y-90500000D01*
G75*
G02*
X47250000Y-90250000I0J250000D01*
G01*
X47250000Y-84750000D01*
G75*
G02*
X47500000Y-84500000I250000J0D01*
G01*
X48000000Y-84500000D01*
G75*
G02*
X48250000Y-84750000I0J-250000D01*
G01*
G37*
G04 #@! TD.AperFunction*
G04 #@! TA.AperFunction,SMDPad,CuDef*
G36*
G01*
X49750000Y-84750000D02*
X49750000Y-90250000D01*
G75*
G02*
X49500000Y-90500000I-250000J0D01*
G01*
X49000000Y-90500000D01*
G75*
G02*
X48750000Y-90250000I0J250000D01*
G01*
X48750000Y-84750000D01*
G75*
G02*
X49000000Y-84500000I250000J0D01*
G01*
X49500000Y-84500000D01*
G75*
G02*
X49750000Y-84750000I0J-250000D01*
G01*
G37*
G04 #@! TD.AperFunction*
G04 #@! TA.AperFunction,SMDPad,CuDef*
G36*
G01*
X51250000Y-84750000D02*
X51250000Y-90250000D01*
G75*
G02*
X51000000Y-90500000I-250000J0D01*
G01*
X50500000Y-90500000D01*
G75*
G02*
X50250000Y-90250000I0J250000D01*
G01*
X50250000Y-84750000D01*
G75*
G02*
X50500000Y-84500000I250000J0D01*
G01*
X51000000Y-84500000D01*
G75*
G02*
X51250000Y-84750000I0J-250000D01*
G01*
G37*
G04 #@! TD.AperFunction*
G04 #@! TA.AperFunction,SMDPad,CuDef*
G36*
G01*
X52750000Y-84750000D02*
X52750000Y-90250000D01*
G75*
G02*
X52500000Y-90500000I-250000J0D01*
G01*
X52000000Y-90500000D01*
G75*
G02*
X51750000Y-90250000I0J250000D01*
G01*
X51750000Y-84750000D01*
G75*
G02*
X52000000Y-84500000I250000J0D01*
G01*
X52500000Y-84500000D01*
G75*
G02*
X52750000Y-84750000I0J-250000D01*
G01*
G37*
G04 #@! TD.AperFunction*
G04 #@! TA.AperFunction,SMDPad,CuDef*
G36*
G01*
X54250000Y-84750000D02*
X54250000Y-90250000D01*
G75*
G02*
X54000000Y-90500000I-250000J0D01*
G01*
X53500000Y-90500000D01*
G75*
G02*
X53250000Y-90250000I0J250000D01*
G01*
X53250000Y-84750000D01*
G75*
G02*
X53500000Y-84500000I250000J0D01*
G01*
X54000000Y-84500000D01*
G75*
G02*
X54250000Y-84750000I0J-250000D01*
G01*
G37*
G04 #@! TD.AperFunction*
G04 #@! TA.AperFunction,SMDPad,CuDef*
G36*
G01*
X55750000Y-84750000D02*
X55750000Y-90250000D01*
G75*
G02*
X55500000Y-90500000I-250000J0D01*
G01*
X55000000Y-90500000D01*
G75*
G02*
X54750000Y-90250000I0J250000D01*
G01*
X54750000Y-84750000D01*
G75*
G02*
X55000000Y-84500000I250000J0D01*
G01*
X55500000Y-84500000D01*
G75*
G02*
X55750000Y-84750000I0J-250000D01*
G01*
G37*
G04 #@! TD.AperFunction*
G04 #@! TA.AperFunction,SMDPad,CuDef*
G36*
G01*
X57250000Y-84750000D02*
X57250000Y-90250000D01*
G75*
G02*
X57000000Y-90500000I-250000J0D01*
G01*
X56500000Y-90500000D01*
G75*
G02*
X56250000Y-90250000I0J250000D01*
G01*
X56250000Y-84750000D01*
G75*
G02*
X56500000Y-84500000I250000J0D01*
G01*
X57000000Y-84500000D01*
G75*
G02*
X57250000Y-84750000I0J-250000D01*
G01*
G37*
G04 #@! TD.AperFunction*
G04 #@! TA.AperFunction,SMDPad,CuDef*
G36*
G01*
X58750000Y-84750000D02*
X58750000Y-90250000D01*
G75*
G02*
X58500000Y-90500000I-250000J0D01*
G01*
X58000000Y-90500000D01*
G75*
G02*
X57750000Y-90250000I0J250000D01*
G01*
X57750000Y-84750000D01*
G75*
G02*
X58000000Y-84500000I250000J0D01*
G01*
X58500000Y-84500000D01*
G75*
G02*
X58750000Y-84750000I0J-250000D01*
G01*
G37*
G04 #@! TD.AperFunction*
G04 #@! TA.AperFunction,SMDPad,CuDef*
G36*
G01*
X60250000Y-84750000D02*
X60250000Y-90250000D01*
G75*
G02*
X60000000Y-90500000I-250000J0D01*
G01*
X59500000Y-90500000D01*
G75*
G02*
X59250000Y-90250000I0J250000D01*
G01*
X59250000Y-84750000D01*
G75*
G02*
X59500000Y-84500000I250000J0D01*
G01*
X60000000Y-84500000D01*
G75*
G02*
X60250000Y-84750000I0J-250000D01*
G01*
G37*
G04 #@! TD.AperFunction*
G04 #@! TA.AperFunction,SMDPad,CuDef*
G36*
G01*
X61750000Y-84750000D02*
X61750000Y-90250000D01*
G75*
G02*
X61500000Y-90500000I-250000J0D01*
G01*
X61000000Y-90500000D01*
G75*
G02*
X60750000Y-90250000I0J250000D01*
G01*
X60750000Y-84750000D01*
G75*
G02*
X61000000Y-84500000I250000J0D01*
G01*
X61500000Y-84500000D01*
G75*
G02*
X61750000Y-84750000I0J-250000D01*
G01*
G37*
G04 #@! TD.AperFunction*
G04 #@! TA.AperFunction,SMDPad,CuDef*
G36*
G01*
X63250000Y-84750000D02*
X63250000Y-90250000D01*
G75*
G02*
X63000000Y-90500000I-250000J0D01*
G01*
X62500000Y-90500000D01*
G75*
G02*
X62250000Y-90250000I0J250000D01*
G01*
X62250000Y-84750000D01*
G75*
G02*
X62500000Y-84500000I250000J0D01*
G01*
X63000000Y-84500000D01*
G75*
G02*
X63250000Y-84750000I0J-250000D01*
G01*
G37*
G04 #@! TD.AperFunction*
G04 #@! TA.AperFunction,SMDPad,CuDef*
G36*
G01*
X64750000Y-84750000D02*
X64750000Y-90250000D01*
G75*
G02*
X64500000Y-90500000I-250000J0D01*
G01*
X64000000Y-90500000D01*
G75*
G02*
X63750000Y-90250000I0J250000D01*
G01*
X63750000Y-84750000D01*
G75*
G02*
X64000000Y-84500000I250000J0D01*
G01*
X64500000Y-84500000D01*
G75*
G02*
X64750000Y-84750000I0J-250000D01*
G01*
G37*
G04 #@! TD.AperFunction*
G04 #@! TA.AperFunction,SMDPad,CuDef*
G36*
G01*
X66250000Y-84750000D02*
X66250000Y-90250000D01*
G75*
G02*
X66000000Y-90500000I-250000J0D01*
G01*
X65500000Y-90500000D01*
G75*
G02*
X65250000Y-90250000I0J250000D01*
G01*
X65250000Y-84750000D01*
G75*
G02*
X65500000Y-84500000I250000J0D01*
G01*
X66000000Y-84500000D01*
G75*
G02*
X66250000Y-84750000I0J-250000D01*
G01*
G37*
G04 #@! TD.AperFunction*
G04 #@! TA.AperFunction,SMDPad,CuDef*
G36*
G01*
X67750000Y-84750000D02*
X67750000Y-90250000D01*
G75*
G02*
X67500000Y-90500000I-250000J0D01*
G01*
X67000000Y-90500000D01*
G75*
G02*
X66750000Y-90250000I0J250000D01*
G01*
X66750000Y-84750000D01*
G75*
G02*
X67000000Y-84500000I250000J0D01*
G01*
X67500000Y-84500000D01*
G75*
G02*
X67750000Y-84750000I0J-250000D01*
G01*
G37*
G04 #@! TD.AperFunction*
G04 #@! TA.AperFunction,SMDPad,CuDef*
G36*
G01*
X69250000Y-84750000D02*
X69250000Y-90250000D01*
G75*
G02*
X69000000Y-90500000I-250000J0D01*
G01*
X68500000Y-90500000D01*
G75*
G02*
X68250000Y-90250000I0J250000D01*
G01*
X68250000Y-84750000D01*
G75*
G02*
X68500000Y-84500000I250000J0D01*
G01*
X69000000Y-84500000D01*
G75*
G02*
X69250000Y-84750000I0J-250000D01*
G01*
G37*
G04 #@! TD.AperFunction*
G04 #@! TA.AperFunction,SMDPad,CuDef*
G36*
G01*
X70750000Y-84750000D02*
X70750000Y-90250000D01*
G75*
G02*
X70500000Y-90500000I-250000J0D01*
G01*
X70000000Y-90500000D01*
G75*
G02*
X69750000Y-90250000I0J250000D01*
G01*
X69750000Y-84750000D01*
G75*
G02*
X70000000Y-84500000I250000J0D01*
G01*
X70500000Y-84500000D01*
G75*
G02*
X70750000Y-84750000I0J-250000D01*
G01*
G37*
G04 #@! TD.AperFunction*
G04 #@! TA.AperFunction,SMDPad,CuDef*
G36*
G01*
X72250000Y-84750000D02*
X72250000Y-90250000D01*
G75*
G02*
X72000000Y-90500000I-250000J0D01*
G01*
X71500000Y-90500000D01*
G75*
G02*
X71250000Y-90250000I0J250000D01*
G01*
X71250000Y-84750000D01*
G75*
G02*
X71500000Y-84500000I250000J0D01*
G01*
X72000000Y-84500000D01*
G75*
G02*
X72250000Y-84750000I0J-250000D01*
G01*
G37*
G04 #@! TD.AperFunction*
G04 #@! TA.AperFunction,SMDPad,CuDef*
G36*
G01*
X73750000Y-84750000D02*
X73750000Y-90250000D01*
G75*
G02*
X73500000Y-90500000I-250000J0D01*
G01*
X73000000Y-90500000D01*
G75*
G02*
X72750000Y-90250000I0J250000D01*
G01*
X72750000Y-84750000D01*
G75*
G02*
X73000000Y-84500000I250000J0D01*
G01*
X73500000Y-84500000D01*
G75*
G02*
X73750000Y-84750000I0J-250000D01*
G01*
G37*
G04 #@! TD.AperFunction*
G04 #@! TA.AperFunction,SMDPad,CuDef*
G36*
G01*
X75250000Y-84750000D02*
X75250000Y-90250000D01*
G75*
G02*
X75000000Y-90500000I-250000J0D01*
G01*
X74500000Y-90500000D01*
G75*
G02*
X74250000Y-90250000I0J250000D01*
G01*
X74250000Y-84750000D01*
G75*
G02*
X74500000Y-84500000I250000J0D01*
G01*
X75000000Y-84500000D01*
G75*
G02*
X75250000Y-84750000I0J-250000D01*
G01*
G37*
G04 #@! TD.AperFunction*
G04 #@! TA.AperFunction,SMDPad,CuDef*
G36*
G01*
X76750000Y-84750000D02*
X76750000Y-90250000D01*
G75*
G02*
X76500000Y-90500000I-250000J0D01*
G01*
X76000000Y-90500000D01*
G75*
G02*
X75750000Y-90250000I0J250000D01*
G01*
X75750000Y-84750000D01*
G75*
G02*
X76000000Y-84500000I250000J0D01*
G01*
X76500000Y-84500000D01*
G75*
G02*
X76750000Y-84750000I0J-250000D01*
G01*
G37*
G04 #@! TD.AperFunction*
G04 #@! TA.AperFunction,SMDPad,CuDef*
G36*
G01*
X78250000Y-84750000D02*
X78250000Y-90250000D01*
G75*
G02*
X78000000Y-90500000I-250000J0D01*
G01*
X77500000Y-90500000D01*
G75*
G02*
X77250000Y-90250000I0J250000D01*
G01*
X77250000Y-84750000D01*
G75*
G02*
X77500000Y-84500000I250000J0D01*
G01*
X78000000Y-84500000D01*
G75*
G02*
X78250000Y-84750000I0J-250000D01*
G01*
G37*
G04 #@! TD.AperFunction*
G04 #@! TA.AperFunction,SMDPad,CuDef*
G36*
G01*
X80250000Y-84750500D02*
X80250000Y-90249500D01*
G75*
G02*
X79999500Y-90500000I-250500J0D01*
G01*
X79000500Y-90500000D01*
G75*
G02*
X78750000Y-90249500I0J250500D01*
G01*
X78750000Y-84750500D01*
G75*
G02*
X79000500Y-84500000I250500J0D01*
G01*
X79999500Y-84500000D01*
G75*
G02*
X80250000Y-84750500I0J-250500D01*
G01*
G37*
G04 #@! TD.AperFunction*
D10*
X34250000Y-40585000D03*
X34250000Y-35535000D03*
X36790000Y-40585000D03*
X36790000Y-35535000D03*
X39330000Y-40585000D03*
X39330000Y-35535000D03*
X41870000Y-40585000D03*
X41870000Y-35535000D03*
X44410000Y-40585000D03*
X44410000Y-35535000D03*
X46950000Y-40585000D03*
X46950000Y-35535000D03*
X49490000Y-40585000D03*
X49490000Y-35535000D03*
X52030000Y-40585000D03*
X52030000Y-35535000D03*
X54570000Y-40585000D03*
X54570000Y-35535000D03*
X57110000Y-40585000D03*
X57110000Y-35535000D03*
X59650000Y-40585000D03*
X59650000Y-35535000D03*
X62190000Y-40585000D03*
X62190000Y-35535000D03*
X64730000Y-40585000D03*
X64730000Y-35535000D03*
X67270000Y-40585000D03*
X67270000Y-35535000D03*
X69810000Y-40585000D03*
X69810000Y-35535000D03*
X72350000Y-40585000D03*
X72350000Y-35535000D03*
D11*
X79500001Y-83499999D03*
X79500001Y-81999999D03*
X79500001Y-80499999D03*
D12*
X34250000Y-40585000D02*
X34250000Y-43160000D01*
X32500001Y-44909999D02*
X32500001Y-87500001D01*
X34250000Y-43160000D02*
X32500001Y-44909999D01*
D13*
X34250000Y-37425000D02*
X34250000Y-35535000D01*
X35520000Y-38695000D02*
X34250000Y-37425000D01*
X35520000Y-44410000D02*
X35520000Y-38695000D01*
X34250001Y-87500001D02*
X34250001Y-45679999D01*
X34250001Y-45679999D02*
X35520000Y-44410000D01*
X36790000Y-45045000D02*
X36790000Y-40585000D01*
X35750001Y-87500001D02*
X35750001Y-46084999D01*
X35750001Y-46084999D02*
X36790000Y-45045000D01*
X38060000Y-38680000D02*
X36790000Y-37410000D01*
X38060000Y-45652880D02*
X38060000Y-38680000D01*
X36790000Y-37410000D02*
X36790000Y-35535000D01*
X37250001Y-87500001D02*
X37250001Y-46462879D01*
X37250001Y-46462879D02*
X38060000Y-45652880D01*
X39330000Y-46655000D02*
X39330000Y-40585000D01*
X38750001Y-87500001D02*
X38750001Y-47234999D01*
X38750001Y-47234999D02*
X39330000Y-46655000D01*
X40600000Y-47300000D02*
X40600000Y-38695000D01*
X39330000Y-37425000D02*
X39330000Y-35535000D01*
X40600000Y-38695000D02*
X39330000Y-37425000D01*
X40250001Y-87500001D02*
X40250001Y-47649999D01*
X40250001Y-47649999D02*
X40600000Y-47300000D01*
X41870000Y-47930000D02*
X41870000Y-40585000D01*
X41750001Y-87500001D02*
X41750001Y-48049999D01*
X41750001Y-48049999D02*
X41870000Y-47930000D01*
X41870000Y-37335000D02*
X41870000Y-35535000D01*
X43250001Y-87500001D02*
X43250001Y-38715001D01*
X43250001Y-38715001D02*
X41870000Y-37335000D01*
X44410000Y-47315000D02*
X44410000Y-40585000D01*
X44750001Y-87500001D02*
X44750001Y-47655001D01*
X44750001Y-47655001D02*
X44410000Y-47315000D01*
X44410000Y-37410000D02*
X44410000Y-35535000D01*
X45680000Y-38680000D02*
X44410000Y-37410000D01*
X45680000Y-46950000D02*
X45680000Y-38680000D01*
X46250001Y-87500001D02*
X46250001Y-47520001D01*
X46250001Y-47520001D02*
X45680000Y-46950000D01*
X46950000Y-42460000D02*
X46950000Y-40585000D01*
X46950000Y-46315000D02*
X46950000Y-42460000D01*
X47750001Y-47115001D02*
X46950000Y-46315000D01*
X47750001Y-87500001D02*
X47750001Y-47115001D01*
X46950000Y-37410000D02*
X46950000Y-35535000D01*
X48220000Y-38680000D02*
X46950000Y-37410000D01*
X49260000Y-87490002D02*
X49260000Y-46683939D01*
X49260000Y-46683939D02*
X48220000Y-45643939D01*
X48220000Y-45643939D02*
X48220000Y-38680000D01*
X49250001Y-87500001D02*
X49260000Y-87490002D01*
X50750001Y-83950000D02*
X50750001Y-84400001D01*
X49959970Y-83159969D02*
X50750001Y-83950000D01*
X49959970Y-45899970D02*
X49959970Y-83159969D01*
X50750001Y-84400001D02*
X50750001Y-87500001D01*
X49490000Y-40585000D02*
X49490000Y-45430000D01*
X49490000Y-45430000D02*
X49959970Y-45899970D01*
X49490000Y-37410000D02*
X49490000Y-35535000D01*
X52250001Y-83950001D02*
X50459979Y-82159979D01*
X50459979Y-82159979D02*
X50459979Y-71740021D01*
X52250001Y-87500001D02*
X52250001Y-83950001D01*
X50459979Y-71740021D02*
X50760000Y-71440000D01*
X50760000Y-71440000D02*
X50760000Y-38680000D01*
X50760000Y-38680000D02*
X49490000Y-37410000D01*
X52030000Y-42460000D02*
X52030000Y-40585000D01*
X53750001Y-87500001D02*
X53750001Y-83850001D01*
X52030000Y-71330000D02*
X52030000Y-42460000D01*
X50959989Y-72400011D02*
X52030000Y-71330000D01*
X50959989Y-81059989D02*
X50959989Y-72400011D01*
X53750001Y-83850001D02*
X50959989Y-81059989D01*
X55250001Y-83750001D02*
X51460000Y-79960000D01*
X51460000Y-79960000D02*
X51460000Y-73267122D01*
X51460000Y-73267122D02*
X53300000Y-71427122D01*
X55250001Y-87500001D02*
X55250001Y-83750001D01*
X52030000Y-37410000D02*
X52030000Y-35535000D01*
X53300000Y-71427122D02*
X53300000Y-38680000D01*
X53300000Y-38680000D02*
X52030000Y-37410000D01*
X54570000Y-42460000D02*
X54570000Y-40585000D01*
X54570000Y-45798488D02*
X54570000Y-42460000D01*
X56750001Y-83709998D02*
X60700000Y-79759999D01*
X56750001Y-87500001D02*
X56750001Y-83709998D01*
X60700000Y-51928488D02*
X54570000Y-45798488D01*
X60700000Y-79759999D02*
X60700000Y-51928488D01*
X54570000Y-37410000D02*
X54570000Y-35535000D01*
X58250001Y-83749999D02*
X61200010Y-80799990D01*
X58250001Y-87500001D02*
X58250001Y-83749999D01*
X61200010Y-80799990D02*
X61200010Y-51721376D01*
X55840000Y-46361366D02*
X55840000Y-38680000D01*
X61200010Y-51721376D02*
X55840000Y-46361366D01*
X55840000Y-38680000D02*
X54570000Y-37410000D01*
X57110000Y-46924244D02*
X57110000Y-42460000D01*
X61700020Y-51514264D02*
X57110000Y-46924244D01*
X61700020Y-81887101D02*
X61700020Y-51514264D01*
X57110000Y-42460000D02*
X57110000Y-40585000D01*
X59750001Y-87500001D02*
X59750001Y-83837120D01*
X59750001Y-83837120D02*
X61700020Y-81887101D01*
X61250001Y-87500001D02*
X61250001Y-83849999D01*
X61250001Y-83849999D02*
X62200030Y-82899970D01*
X57110000Y-37410000D02*
X57110000Y-35535000D01*
X62200030Y-82899970D02*
X62200030Y-51307152D01*
X62200030Y-51307152D02*
X58380000Y-47487122D01*
X58380000Y-47487122D02*
X58380000Y-38680000D01*
X58380000Y-38680000D02*
X57110000Y-37410000D01*
X59650000Y-48050000D02*
X59650000Y-40585000D01*
X62750001Y-87500001D02*
X62750001Y-51150001D01*
X62750001Y-51150001D02*
X59650000Y-48050000D01*
X64250001Y-51578489D02*
X60920000Y-48248488D01*
X60920000Y-48248488D02*
X60920000Y-38680000D01*
X60920000Y-38680000D02*
X59650000Y-37410000D01*
X64250001Y-87500001D02*
X64250001Y-51578489D01*
X59650000Y-37410000D02*
X59650000Y-35535000D01*
X62190000Y-42460000D02*
X62190000Y-40585000D01*
X65750001Y-51360684D02*
X62190000Y-47800683D01*
X65750001Y-87500001D02*
X65750001Y-51360684D01*
X62190000Y-47800683D02*
X62190000Y-42460000D01*
X67250001Y-87500001D02*
X67250001Y-51451781D01*
X63460000Y-47661780D02*
X63460000Y-38680000D01*
X67250001Y-51451781D02*
X63460000Y-47661780D01*
X63460000Y-38680000D02*
X62190000Y-37410000D01*
X62190000Y-37410000D02*
X62190000Y-35535000D01*
X64730000Y-40585000D02*
X64730000Y-47430000D01*
X64730000Y-47430000D02*
X68750001Y-51450001D01*
X68750001Y-51450001D02*
X68750001Y-84400001D01*
X68750001Y-84400001D02*
X68750001Y-87500001D01*
X70250001Y-51250001D02*
X70250001Y-84400001D01*
X66000000Y-47000000D02*
X70250001Y-51250001D01*
X64730000Y-35535000D02*
X64730000Y-37410000D01*
X70250001Y-84400001D02*
X70250001Y-87500001D01*
X66000000Y-38680000D02*
X66000000Y-47000000D01*
X64730000Y-37410000D02*
X66000000Y-38680000D01*
X71750001Y-51125381D02*
X71750001Y-84400001D01*
X67270000Y-40585000D02*
X67270000Y-46645380D01*
X71750001Y-84400001D02*
X71750001Y-87500001D01*
X67270000Y-46645380D02*
X71750001Y-51125381D01*
X73250001Y-84400001D02*
X73250001Y-87500001D01*
X73250001Y-50800001D02*
X73250001Y-84400001D01*
X68540000Y-46090000D02*
X73250001Y-50800001D01*
X68540000Y-38680000D02*
X68540000Y-46090000D01*
X67270000Y-35535000D02*
X67270000Y-37410000D01*
X67270000Y-37410000D02*
X68540000Y-38680000D01*
X74750001Y-84400001D02*
X74750001Y-87500001D01*
X74750001Y-50750001D02*
X74750001Y-84400001D01*
X69810000Y-40585000D02*
X69810000Y-45810000D01*
X69810000Y-45810000D02*
X74750001Y-50750001D01*
X76250001Y-50350001D02*
X76250001Y-84400001D01*
X71080000Y-45180000D02*
X76250001Y-50350001D01*
X69810000Y-35535000D02*
X69810000Y-37410000D01*
X76250001Y-84400001D02*
X76250001Y-87500001D01*
X71080000Y-38680000D02*
X71080000Y-45180000D01*
X69810000Y-37410000D02*
X71080000Y-38680000D01*
X77750001Y-84400001D02*
X77750001Y-87500001D01*
X77750001Y-50050001D02*
X77750001Y-84400001D01*
X72350000Y-40585000D02*
X72350000Y-44650000D01*
X72350000Y-44650000D02*
X77750001Y-50050001D01*
D12*
X79500001Y-84400001D02*
X79500001Y-87500001D01*
X79500001Y-83499999D02*
X79500001Y-84400001D01*
X79500001Y-81999999D02*
X79500001Y-83499999D01*
X79500001Y-80499999D02*
X79500001Y-81999999D01*
X79500001Y-42800001D02*
X79500001Y-80499999D01*
X72800000Y-37900000D02*
X74600000Y-37900000D01*
X74600000Y-37900000D02*
X79500001Y-42800001D01*
X72350000Y-35535000D02*
X72350000Y-37450000D01*
X72350000Y-37450000D02*
X72800000Y-37900000D01*
M02*
